<?xml version="1.0" standalone="no"?>
<!DOCTYPE svg PUBLIC "-//W3C//DTD SVG 20010904//EN"
 "http://www.w3.org/TR/2001/REC-SVG-20010904/DTD/svg10.dtd">
<svg version="1.0" xmlns="http://www.w3.org/2000/svg"
 width="300.000000pt" height="300.000000pt" viewBox="0 0 300.000000 300.000000"
 preserveAspectRatio="xMidYMid meet">
<metadata>
Created by potrace 1.14, written by Peter Selinger 2001-2017
</metadata>
<g transform="translate(0.000000,300.000000) scale(0.100000,-0.100000)"
fill="#000000" stroke="none">
<path d="M1477 2954 c-1 -1 -42 -4 -92 -8 -85 -5 -112 -9 -177 -22 -15 -3 -29
-5 -30 -4 -2 1 -15 -3 -31 -9 -15 -6 -38 -13 -50 -15 -24 -5 -127 -44 -192
-72 -22 -10 -42 -18 -45 -19 -5 -1 -82 -43 -109 -60 -245 -152 -434 -359 -556
-610 -38 -78 -88 -211 -101 -267 -2 -10 -6 -28 -10 -40 -32 -132 -45 -336 -30
-468 13 -111 18 -145 27 -167 5 -13 7 -23 4 -23 -2 0 2 -18 10 -40 8 -22 12
-40 10 -40 -6 0 70 -190 100 -250 54 -107 158 -251 248 -343 132 -134 219
-201 357 -274 71 -38 240 -110 278 -118 9 -2 59 -13 111 -25 135 -30 318 -41
446 -25 68 8 119 15 135 20 8 2 29 7 46 10 54 9 164 45 255 85 430 186 747
579 844 1046 21 104 26 156 25 289 -1 152 -6 198 -44 356 -25 109 -124 348
-147 357 -5 2 -9 12 -9 23 0 10 -4 19 -8 19 -4 0 -16 15 -26 33 -59 101 -220
274 -333 359 -32 23 -59 46 -61 51 -2 4 -8 7 -14 7 -5 0 -28 13 -51 29 -86 58
-300 150 -393 167 -43 9 -47 10 -71 18 -25 8 -70 14 -173 22 -41 3 -90 7 -108
8 -18 1 -33 1 -35 0z"/>
</g>
</svg>
